<?xml version="1.0" encoding="utf-8"?>
<!-- Generator: Adobe Illustrator 16.0.0, SVG Export Plug-In . SVG Version: 6.00 Build 0)  -->
<!DOCTYPE svg PUBLIC "-//W3C//DTD SVG 1.1//EN" "http://www.w3.org/Graphics/SVG/1.1/DTD/svg11.dtd">
<svg version="1.1" id="Layer_1" xmlns="http://www.w3.org/2000/svg" xmlns:xlink="http://www.w3.org/1999/xlink" x="0px" y="0px"
	 width="487px" height="515.5px" viewBox="0 0 487 515.5" enable-background="new 0 0 487 515.5" xml:space="preserve">
<path opacity="0.3" fill="none" stroke="#FFFFFF" stroke-miterlimit="10" d="M402.192,175.675l4.568-5.466c0,0,0,0-7.396-2.407
	c-10.74,6.187-31.436,27.037-31.447,29.289c0,0,1.854,3.871,1.836,5.729c-0.301-0.608,0.661,0.114-3.305-3.858
	c-19.795,19.534-23.686,42.401-24.99,45.147c0.346,1.469,8.968,13.282,13.658,17.802l-6.904,18.71l0.972,6.354l9.141-24.22
	c6.165-1.575,20.954-9.249,20.954-9.249s6.084-11.419,8.006-16.753c-0.233,0.152-4.084,1.927-6.48,2.49
	c-2.542,0.598-1.373-0.651-1.373-0.651s4.704-2.813,7.911-5.765c3.208-2.948,8.975-19.916,8.975-19.916s-0.447-0.871-1.616,0.381
	c-1.17,1.25-5.508,2.514-5.508,2.514s5.684-2.8,10.537-8.088c4.854-5.287,8.799-32.07,8.799-32.07L402.192,175.675z
	 M364.529,205.055l4.723,5.688l0.667,2.832l-2.274-1.111c-2.053-1.469-5.66-3.794-5.66-3.794L364.529,205.055z M360.68,210.854
	l6.352,4.861l0.914,3.079l-2.898-0.267c-0.938-0.878-6.801-3.688-6.801-3.688L360.68,210.854z M359.812,257.843
	c-2.379,1.29-2.379,1.29-2.379,1.29l-0.545-2.311c0,0,18.667-59.615,41.468-79.855l1.619,4.107
	C399.976,181.076,371.669,217.003,359.812,257.843z"/>
<path opacity="0.3" fill="none" stroke="#FFFFFF" stroke-miterlimit="10" d="M334.857,147.981
	c-1.033-2.858-2.713-25.994-20.543-47.337c-4.328,3.576-3.301,2.947-3.66,3.524c0.162-1.852,2.379-5.528,2.379-5.528
	c0.203-2.242-18.396-24.982-28.494-32.17c-7.59,1.688-7.59,1.688-7.59,1.688l4.021,5.878l-6.304-0.635
	c0,0,1.356,27.039,5.679,32.767c4.326,5.729,9.717,9.062,9.717,9.062s-4.197-1.674-5.242-3.03c-1.045-1.357-1.572-0.534-1.572-0.534
	s4.111,17.443,7.021,20.686c2.91,3.242,7.32,6.497,7.32,6.497s1.045,1.354-1.429,0.517c-2.331-0.792-5.993-2.927-6.212-3.102
	c1.4,5.493,6.361,17.444,6.361,17.444s13.987,9.06,19.972,11.217l6.778,24.982l1.574-6.229l-5.078-19.288
	C324.66,160.34,334.373,149.411,334.857,147.981z M320.958,117.235c0,0-6.104,2.237-7.122,3.021l-2.91-0.014l1.203-2.978l6.789-4.23
	L320.958,117.235z M310.396,112.101l5.246-5.207l2.188,3.842c0,0-3.812,1.967-5.997,3.231l-2.372,0.889L310.396,112.101z
	 M282.662,79.623l2.005-3.933c20.754,22.334,33.616,83.464,33.616,83.464l-0.766,2.248c0,0,0,0-2.244-1.514
	C307.391,118.101,282.662,79.623,282.662,79.623z"/>
<path opacity="0.3" fill="none" stroke="#FFFFFF" stroke-miterlimit="10" d="M233.583,28.719l5.461-4.573c0,0,0,0-6.854-3.676
	c-11.664,4.194-35.713,21.064-36.124,23.278c0,0,1.141,4.138,0.796,5.963c-0.188-0.652,0.63,0.23-2.571-4.381
	c-22.933,15.733-30.798,37.556-32.568,40.027c0.081,1.508,6.484,14.659,10.303,19.934l-10.1,17.199l-0.166,6.426l13.273-22.228
	c6.345-0.461,22.258-5.404,22.258-5.404s8.003-10.167,10.836-15.077c-0.256,0.109-4.359,1.176-6.818,1.308
	c-2.608,0.139-1.237-0.885-1.237-0.885s5.127-1.939,8.805-4.277c3.678-2.336,12.349-18.02,12.349-18.02s-0.288-0.936-1.659,0.089
	c-1.373,1.024-5.865,1.502-5.865,1.502s6.088-1.753,11.8-6.101c5.709-4.348,14.32-30.014,14.32-30.014L233.583,28.719z
	 M191.325,50.99l3.645,6.431l0.157,2.905l-2.042-1.496c-1.761-1.808-4.901-4.733-4.901-4.733L191.325,50.99z M186.513,56.018
	l5.394,5.906l0.355,3.192l-2.806-0.773c-0.769-1.03-6.042-4.832-6.042-4.832L186.513,56.018z M177.365,102.116
	c-2.569,0.85-2.569,0.85-2.569,0.85l-0.128-2.37c0,0,28.896-55.383,54.912-71.282l0.868,4.33
	C230.448,33.644,196.244,64.01,177.365,102.116z"/>
<path opacity="0.3" fill="none" stroke="#FFFFFF" stroke-miterlimit="10" d="M336.833,288.677c0,0-11.433-24.539-17.593-28.221
	c-6.163-3.682-12.41-4.74-12.41-4.74s4.52-0.027,5.996,0.836c1.479,0.864,1.658-0.097,1.658-0.097s-10.372-14.614-14.289-16.522
	c-3.916-1.91-9.229-3.265-9.229-3.265s-1.478-0.862,1.131-1.019c2.457-0.144,6.652,0.457,6.922,0.537
	c-3.365-4.562-12.459-13.769-12.459-13.769s-16.367-3.131-22.724-2.878l-15.679-20.598l0.885,6.367l11.962,15.957
	c-3.204,5.671-8.092,19.454-8.003,20.961c2.034,2.258,12.296,23.062,36.846,36.127c2.666-4.94,1.95-3.974,2.065-4.643
	c0.547,1.776-0.123,6.016-0.123,6.016c0.653,2.154,26.442,16.226,38.504,19.086c6.397-4.422,6.397-4.422,6.397-4.422l-5.938-3.932
	L336.833,288.677z M277.451,265.483c0,0,4.812-4.368,5.461-5.479l2.702-1.083l0.006,3.212l-4.698,6.475L277.451,265.483z
	 M286.266,273.065l-3.471-2.735c0,0,2.792-3.259,4.34-5.253l1.863-1.715l0.169,2.904L286.266,273.065z M326.708,290.319
	c-27.633-12.885-62.552-64.682-62.552-64.682l-0.139-2.371c0,0,0,0,2.648,0.558c23.027,35.751,60.419,62.096,60.419,62.096
	L326.708,290.319z"/>
<path opacity="0.3" fill="none" stroke="#FFFFFF" stroke-miterlimit="10" d="M252.883,124.994l4.568-5.465c0,0,0,0-7.396-2.408
	c-10.74,6.187-31.435,27.037-31.447,29.289c0,0,1.854,3.871,1.836,5.729c-0.3-0.608,0.661,0.115-3.304-3.858
	c-19.796,19.533-23.686,42.402-24.991,45.146c0.346,1.47,8.969,13.284,13.659,17.803l-6.905,18.711l0.972,6.354l9.142-24.221
	c6.166-1.575,20.954-9.248,20.954-9.248s6.083-11.419,8.005-16.753c-0.233,0.153-4.083,1.927-6.48,2.491
	c-2.542,0.597-1.373-0.652-1.373-0.652s4.704-2.814,7.911-5.764c3.208-2.949,8.975-19.918,8.975-19.918s-0.447-0.869-1.617,0.381
	s-5.508,2.515-5.508,2.515s5.684-2.8,10.538-8.088c4.853-5.287,8.798-32.07,8.798-32.07L252.883,124.994z M215.219,154.374
	l4.723,5.687l0.667,2.832l-2.274-1.11c-2.053-1.47-5.66-3.794-5.66-3.794L215.219,154.374z M211.37,160.173l6.352,4.861l0.913,3.079
	l-2.898-0.266c-0.938-0.879-6.8-3.689-6.8-3.689L211.37,160.173z M210.503,207.162c-2.379,1.29-2.379,1.29-2.379,1.29l-0.545-2.312
	c0,0,18.667-59.614,41.468-79.854l1.619,4.108C250.666,130.395,222.359,166.322,210.503,207.162z"/>
<path opacity="0.3" fill="none" stroke="#FFFFFF" stroke-miterlimit="10" d="M235.567,276.066l4.289-4.664
	c0,0-22.449-15.131-29.625-15.108c-7.179,0.024-13.078,2.338-13.078,2.338s3.857-2.354,5.568-2.375
	c1.713-0.022,1.372-0.938,1.372-0.938s-16.423-7.172-20.764-6.788c-4.341,0.383-9.589,1.962-9.589,1.962s-1.711,0.021,0.443-1.454
	c2.031-1.392,5.936-3.04,6.207-3.11c-5.236-2.174-17.773-5.371-17.773-5.371s-15.635,5.756-20.952,9.25l-24.057-9.563l4.041,4.998
	l18.478,7.504c0.178,6.511,3.098,20.843,3.951,22.089c2.907,0.887,22.427,13.419,50.198,11.954
	c-0.265-5.606-0.378-4.409-0.624-5.042c1.385,1.24,2.996,5.218,2.996,5.218c1.672,1.509,31.023,0.267,42.832-3.503
	c3.202-7.087,3.202-7.087,3.202-7.087L235.567,276.066z M181.603,283.038l-4.585-0.888c0,0,1.871-6.226,1.854-7.51l1.757-2.32
	l1.661,2.748L181.603,283.038z M184.096,283.548c0,0,0.711-4.231,1.01-6.739l0.712-2.43l1.643,2.402l1.02,7.32L184.096,283.548z
	 M145.08,254.866l-1.34-1.96c0,0,0,0,2.556-0.889c38.166,18.756,83.786,22.049,83.786,22.049l1.945,3.963
	C201.708,281.24,145.08,254.866,145.08,254.866z"/>
<path opacity="0.3" fill="none" stroke="#FFFFFF" stroke-miterlimit="10" d="M474.773,272.293
	c-0.985-2.877-2.256-26.039-19.706-47.693c-4.391,3.498-3.354,2.89-3.721,3.459c0.193-1.849,2.474-5.483,2.474-5.483
	c0.243-2.239-17.951-25.304-27.921-32.668c-7.619,1.553-7.619,1.553-7.619,1.553l3.918,5.948l-6.29-0.745c0,0,0.88,27.058,5.1,32.86
	c4.225,5.806,9.555,9.232,9.555,9.232s-4.167-1.748-5.188-3.123c-1.021-1.376-1.563-0.562-1.563-0.562s3.804,17.512,6.656,20.807
	c2.852,3.295,7.205,6.625,7.205,6.625s1.021,1.373-1.438,0.492c-2.315-0.832-5.938-3.031-6.155-3.211
	c1.305,5.519,6.054,17.553,6.054,17.553s13.819,9.3,19.767,11.567l6.334,25.1l1.686-6.203l-4.735-19.37
	C464.355,284.473,474.264,273.713,474.773,272.293z M450.948,235.984l5.338-5.113l2.118,3.879c0,0-3.849,1.9-6.054,3.127
	l-2.389,0.846L450.948,235.984z M423.79,203.023l2.074-3.897c20.355,22.698,32.138,84.046,32.138,84.046l-0.806,2.234
	c0,0,0,0-2.217-1.553C447.835,241.932,423.79,203.023,423.79,203.023z M454.242,244.199l-2.908-0.064l1.256-2.955l6.861-4.109
	l1.966,4.234C461.416,241.305,455.273,243.434,454.242,244.199z"/>
<path opacity="0.3" fill="none" stroke="#FFFFFF" stroke-miterlimit="10" d="M70.381,175.479l-11.227-23.33
	c3.114-5.547,7.763-21.549,7.763-21.549s-4.068-12.28-6.604-17.352c-0.05,0.275-1.422,4.285-2.667,6.41
	c-1.323,2.252-1.42,0.543-1.42,0.543s1.208-5.347,1.286-9.703c0.079-4.356-8.226-20.237-8.226-20.237s-0.938-0.276-0.84,1.433
	c0.098,1.709-1.98,5.721-1.98,5.721s1.895-6.046,1.417-13.208c-0.48-7.16-17.146-28.495-17.146-28.495l-4.352,4.604l-0.805-7.078
	c0,0,0,0-6.845,3.692c-2.932,12.043-2.117,41.408-0.496,42.972c0,0,4.081,1.329,5.414,2.624c-0.647-0.203,0.54-0.399-5.072-0.271
	c0.482,27.807,14.353,46.4,15.438,49.239c1.303,0.763,15.803,2.672,22.311,2.394l8.781,17.909L70.381,175.479z M21.667,107.851
	l7.375,0.505l2.51,1.471l-2.374,0.879c-2.479,0.474-6.651,1.48-6.651,1.48L21.667,107.851z M31.777,116.771
	c-1.283,0.074-7.362,2.377-7.362,2.377l-1.206-4.512l7.901-1.244l2.859,1.465L31.777,116.771z M53.869,149.097
	c0,0-30.274-54.642-29.194-85.112l4.09,1.663c0,0,6.477,45.279,27.859,82.038c-0.707,2.611-0.707,2.611-0.707,2.611L53.869,149.097z
	"/>
<path opacity="0.3" fill="none" stroke="#FFFFFF" stroke-miterlimit="10" d="M178.04,137.675l-5.646,4.344l0.284-6.331
	c0,0-26.922,2.853-32.401,7.485c-5.481,4.637-8.511,10.201-8.511,10.201s1.44-4.283,2.736-5.4c1.297-1.118,0.447-1.601,0.447-1.601
	s-17.189,5.07-20.267,8.156c-3.077,3.085-6.08,7.67-6.08,7.67s-1.296,1.117-0.597-1.399c0.662-2.37,2.591-6.146,2.753-6.373
	c-5.407,1.703-17.064,7.317-17.064,7.317S85.423,176.21,83.6,182.305l-24.572,8.149l6.309,1.229l18.977-6.14
	c4.324,4.871,15.777,13.967,17.231,14.371c2.796-1.19,25.804-4.147,46.127-23.132c-3.809-4.124-3.125-3.135-3.721-3.46
	c1.857,0.06,5.65,2.067,5.65,2.067c2.25,0.08,23.926-19.75,30.544-30.229C178.04,137.675,178.04,137.675,178.04,137.675z
	 M131.473,184.333c0,0-2.57-5.972-3.409-6.942l-0.147-2.906l3.04,1.035l4.599,6.545L131.473,184.333z M137.792,180.852
	c0,0-2.177-3.699-3.561-5.811l-1.018-2.318l2.803,0.782l5.489,4.95L137.792,180.852z M89.47,183.982l-2.287-0.64
	c0,0,0,0,1.386-2.325c41.288-10.185,78.339-37.005,78.339-37.005l4.038,1.785C149.794,167.756,89.47,183.982,89.47,183.982z"/>
<path opacity="0.3" fill="none" stroke="#FFFFFF" stroke-miterlimit="10" d="M476.812,81.246l-4.957,5.115l-0.639-6.304
	c0,0-26.224,6.727-30.974,12.105c-4.75,5.383-6.938,11.329-6.938,11.329s0.803-4.446,1.922-5.741
	c1.122-1.294,0.211-1.648,0.211-1.648s-16.271,7.512-18.868,11.011c-2.598,3.498-4.903,8.471-4.903,8.471s-1.12,1.294-0.793-1.298
	c0.311-2.442,1.671-6.456,1.799-6.706c-5.103,2.471-15.821,9.718-15.821,9.718s-6.083,15.509-7.005,21.805l-23.13,11.627l6.42,0.302
	l17.885-8.827c4.985,4.192,17.637,11.528,19.136,11.719c2.594-1.585,24.929-7.849,42.282-29.579
	c-4.366-3.528-3.547-2.647-4.184-2.884c1.847-0.211,5.892,1.227,5.892,1.227c2.237-0.248,20.808-23.013,25.834-34.342
	C476.812,81.246,476.812,81.246,476.812,81.246z M437.506,134.165c0,0-3.409-5.533-4.381-6.376l-0.567-2.853l3.157,0.584l5.5,5.808
	L437.506,134.165z M443.252,129.805c0,0-2.689-3.346-4.365-5.232l-1.344-2.147l2.887,0.368l6.149,4.102L443.252,129.805z
	 M395.896,139.912l-2.356-0.301c0,0,0,0,1.035-2.501c39.375-16.066,72.141-47.978,72.141-47.978l4.255,1.18
	C453.229,115.106,395.896,139.912,395.896,139.912z"/>
<path opacity="0.3" fill="none" stroke="#FFFFFF" stroke-miterlimit="10" d="M85.266,293.389l-0.357-6.416L74.3,270.084
	c3.661-5.39,9.666-18.724,9.702-20.232c-1.841-2.416-10.355-23.996-33.748-39.039c-3.062,4.705-2.27,3.799-2.439,4.457
	c-0.4-1.813,0.618-5.984,0.618-5.984c-0.476-2.201-25.02-18.346-36.803-22.188c-6.741,3.877-6.741,3.877-6.741,3.877l5.596,4.408
	L4.28,196.66c0,0,9.373,25.398,15.209,29.572c5.84,4.176,11.979,5.746,11.979,5.746s-4.505-0.344-5.908-1.326
	c-1.402-0.982-1.661-0.041-1.661-0.041s9.135,15.419,12.882,17.646c3.745,2.226,8.927,4.013,8.927,4.013s1.401,0.98-1.21,0.92
	c-2.461-0.059-6.593-1.002-6.854-1.104c2.978,4.823,11.282,14.745,11.282,14.745s16.055,4.467,22.41,4.739L85.266,293.389z
	 M61.551,224.662c0,0-5.157,3.958-5.894,5.01l-2.782,0.857l0.259-3.2l5.215-6.065L61.551,224.662z M49.938,222.917l3.451-6.537
	l3.235,3.015c0,0-3.052,3.018-4.759,4.875l-1.999,1.559L49.938,222.917z M13.767,200.21l0.739-4.353
	c26.478,15.113,57.015,69.609,57.015,69.609l-0.059,2.375c0,0,0,0-2.594-0.773C48.86,229.542,13.767,200.21,13.767,200.21z"/>
<path opacity="0.3" fill="none" stroke="#FFFFFF" stroke-miterlimit="10" d="M363.662,24.727c0,0,0,0-3.201-7.087
	c-11.809-3.769-41.16-5.011-42.832-3.503c0,0-1.611,3.978-2.996,5.218c0.246-0.633,0.359,0.565,0.623-5.042
	c-27.771-1.465-47.291,11.068-50.197,11.954c-0.853,1.246-3.773,15.576-3.951,22.087l-18.479,7.504l-4.041,4.998l24.056-9.562
	c5.315,3.494,20.954,9.251,20.954,9.251s12.537-3.198,17.773-5.372c-0.271-0.07-4.176-1.72-6.207-3.11
	c-2.154-1.477-0.443-1.454-0.443-1.454s5.248,1.579,9.588,1.962c4.342,0.384,20.765-6.789,20.765-6.789s0.342-0.916-1.371-0.938
	c-1.711-0.021-5.568-2.375-5.568-2.375s5.898,2.313,13.078,2.338c7.177,0.022,29.625-15.108,29.625-15.108l-4.289-4.664
	L363.662,24.727z M309.459,16.998l-1.02,7.32l-1.644,2.402l-0.711-2.43c-0.299-2.507-1.01-6.739-1.01-6.739L309.459,16.998z
	 M302.582,18.062l0.688,7.969l-1.66,2.749l-1.758-2.321c0.019-1.284-1.854-7.509-1.854-7.509L302.582,18.062z M351.062,27.033
	c0,0-45.621,3.292-83.787,22.049c-2.555-0.889-2.555-0.889-2.555-0.889l1.34-1.96c0,0,56.627-26.374,86.946-23.164L351.062,27.033z"
	/>
<path opacity="0.3" fill="none" stroke="#FFFFFF" stroke-miterlimit="10" d="M447.466,13.993l5.715-4.25c0,0,0,0-6.63-4.065
	c-11.886,3.515-36.868,18.973-37.403,21.16c0,0,0.9,4.196,0.451,6c-0.151-0.662,0.615,0.266-2.315-4.521
	c-23.801,14.387-32.909,35.72-34.816,38.085c-0.006,1.511,5.625,15.005,9.136,20.492l-11.073,16.588l-0.535,6.405l14.53-21.423
	c6.359-0.094,22.534-4.116,22.534-4.116s8.576-9.688,11.688-14.428c-0.264,0.095-4.421,0.923-6.883,0.913
	c-2.611-0.011-1.185-0.954-1.185-0.954s5.229-1.641,9.035-3.762c3.809-2.122,13.365-17.28,13.365-17.28s-0.231-0.95-1.661-0.006
	c-1.428,0.943-5.941,1.163-5.941,1.163s6.181-1.399,12.135-5.412c5.948-4.012,16.022-29.14,16.022-29.14L447.466,13.993z
	 M403.994,33.793l3.269,6.629l-0.01,2.91l-1.953-1.611c-1.655-1.906-4.62-5.008-4.62-5.008L403.994,33.793z M398.902,38.536
	l5.044,6.207l0.171,3.207l-2.758-0.933c-0.707-1.073-5.752-5.171-5.752-5.171L398.902,38.536z M387.115,84.032
	c-2.613,0.7-2.613,0.7-2.613,0.7l0.008-2.374c0,0,32.036-53.627,58.925-68.002l0.617,4.373
	C444.052,18.728,408.156,47.076,387.115,84.032z"/>
<path opacity="0.3" fill="none" stroke="#FFFFFF" stroke-miterlimit="10" d="M149.146,82.823l-22.804-12.257
	c-0.747-6.318-6.404-21.99-6.404-21.99s-10.518-7.536-15.551-10.145c0.121,0.251,1.371,4.302,1.614,6.752
	c0.257,2.599-0.828,1.275-0.828,1.275s-2.169-5.034-4.67-8.603c-2.5-3.568-18.559-11.523-18.559-11.523s-0.922,0.33,0.164,1.653
	c1.085,1.325,1.766,5.792,1.766,5.792s-2.026-6.003-6.628-11.512c-4.601-5.508-30.63-12.95-30.63-12.95l-0.81,6.283l-4.814-5.249
	c0,0,0,0-3.363,7.014c4.717,11.461,22.656,34.725,24.887,35.035c0,0,4.082-1.327,5.921-1.064c-0.643,0.217,0.202-0.64-4.26,2.766
	c16.753,22.2,38.908,29.072,41.457,30.728c1.503-0.15,14.351-7.139,19.448-11.193l17.637,9.313L149.146,82.823z M69.964,56.809
	l6.259-3.931l2.896-0.288l-1.402,2.108c-1.727,1.84-4.508,5.109-4.508,5.109L69.964,56.809z M83.388,58.073
	c-0.994,0.814-4.555,6.254-4.555,6.254l-3.628-2.937l5.656-5.656l3.172-0.499L83.388,58.073z M120.271,71.209
	c0,0-56.631-26.366-73.689-51.637l4.286-1.063c0,0,31.881,32.797,70.801,49.937c0.964,2.528,0.964,2.528,0.964,2.528L120.271,71.209
	z"/>
<path opacity="0.3" fill="none" stroke="#FFFFFF" stroke-miterlimit="10" d="M429.67,307.322l-5.646,4.345l0.283-6.332
	c0,0-26.922,2.854-32.4,7.485c-5.481,4.638-8.512,10.201-8.512,10.201s1.44-4.283,2.736-5.399c1.297-1.119,0.447-1.602,0.447-1.602
	s-17.189,5.07-20.268,8.156c-3.076,3.085-6.08,7.67-6.08,7.67s-1.295,1.117-0.597-1.399c0.662-2.37,2.591-6.146,2.753-6.373
	c-5.406,1.703-17.064,7.317-17.064,7.317s-8.27,14.466-10.094,20.561l-24.572,8.149l6.31,1.229l18.977-6.14
	c4.324,4.871,15.777,13.967,17.231,14.371c2.796-1.19,25.805-4.147,46.127-23.132c-3.809-4.124-3.125-3.135-3.721-3.46
	c1.857,0.06,5.65,2.067,5.65,2.067c2.25,0.08,23.926-19.75,30.543-30.229C429.67,307.322,429.67,307.322,429.67,307.322z
	 M383.103,353.98c0,0-2.57-5.972-3.408-6.942l-0.147-2.906l3.04,1.035l4.6,6.545L383.103,353.98z M389.422,350.499
	c0,0-2.177-3.699-3.562-5.811l-1.018-2.318l2.803,0.782l5.489,4.95L389.422,350.499z M341.101,353.63l-2.287-0.64
	c0,0,0,0,1.385-2.325c41.289-10.185,78.34-37.006,78.34-37.006l4.037,1.785C401.424,337.403,341.101,353.63,341.101,353.63z"/>
<path opacity="0.3" fill="none" stroke="#FFFFFF" stroke-miterlimit="10" d="M64.827,296.934l4.568-5.466c0,0,0,0-7.396-2.407
	c-10.74,6.187-31.436,27.037-31.447,29.289c0,0,1.854,3.871,1.836,5.729c-0.301-0.608,0.661,0.114-3.305-3.858
	c-19.795,19.534-23.686,42.401-24.99,45.147c0.346,1.469,8.968,13.282,13.658,17.802l-6.904,18.71l0.972,6.354l9.141-24.22
	c6.165-1.575,20.954-9.249,20.954-9.249s6.084-11.419,8.006-16.753c-0.233,0.152-4.084,1.927-6.48,2.49
	c-2.542,0.598-1.373-0.651-1.373-0.651s4.704-2.813,7.911-5.765c3.208-2.948,8.975-19.916,8.975-19.916s-0.447-0.871-1.616,0.381
	c-1.17,1.25-5.508,2.514-5.508,2.514s5.684-2.8,10.537-8.088c4.854-5.287,8.799-32.07,8.799-32.07L64.827,296.934z M27.164,326.313
	l4.723,5.688l0.667,2.832l-2.274-1.111c-2.053-1.469-5.66-3.794-5.66-3.794L27.164,326.313z M23.314,332.112l6.352,4.861
	l0.914,3.079l-2.898-0.267c-0.938-0.878-6.801-3.688-6.801-3.688L23.314,332.112z M22.447,379.102
	c-2.379,1.29-2.379,1.29-2.379,1.29l-0.545-2.311c0,0,18.667-59.615,41.468-79.855l1.619,4.107
	C62.61,302.335,34.304,338.262,22.447,379.102z"/>
<path opacity="0.3" fill="none" stroke="#FFFFFF" stroke-miterlimit="10" d="M284.883,313.632l5.461-4.572c0,0,0,0-6.855-3.677
	c-11.664,4.194-35.713,21.064-36.123,23.278c0,0,1.141,4.138,0.795,5.963c-0.188-0.652,0.631,0.23-2.57-4.381
	c-22.932,15.732-30.797,37.556-32.567,40.027c0.081,1.508,6.484,14.658,10.303,19.934l-10.1,17.199l-0.166,6.426l13.273-22.229
	c6.346-0.461,22.258-5.403,22.258-5.403s8.002-10.167,10.836-15.077c-0.256,0.109-4.359,1.176-6.818,1.309
	c-2.607,0.139-1.236-0.886-1.236-0.886s5.127-1.938,8.805-4.276c3.678-2.336,12.348-18.021,12.348-18.021s-0.287-0.937-1.658,0.089
	c-1.373,1.023-5.865,1.502-5.865,1.502s6.088-1.753,11.801-6.101c5.709-4.349,14.32-30.015,14.32-30.015L284.883,313.632z
	 M242.625,335.903l3.645,6.431l0.156,2.905l-2.041-1.496c-1.761-1.809-4.902-4.732-4.902-4.732L242.625,335.903z M237.812,340.931
	l5.395,5.906l0.354,3.192l-2.806-0.773c-0.769-1.03-6.042-4.832-6.042-4.832L237.812,340.931z M228.665,387.029
	c-2.569,0.85-2.569,0.85-2.569,0.85l-0.128-2.37c0,0,28.896-55.383,54.912-71.281l0.869,4.33
	C281.748,318.558,247.543,348.923,228.665,387.029z"/>
<path opacity="0.3" fill="none" stroke="#FFFFFF" stroke-miterlimit="10" d="M216.277,360.8l-22.805-12.257
	c-0.747-6.318-6.404-21.99-6.404-21.99s-10.518-7.536-15.551-10.145c0.121,0.25,1.371,4.301,1.614,6.752
	c0.257,2.599-0.828,1.274-0.828,1.274s-2.169-5.034-4.67-8.603c-2.5-3.568-18.56-11.523-18.56-11.523s-0.922,0.33,0.164,1.652
	c1.086,1.326,1.767,5.793,1.767,5.793s-2.026-6.004-6.628-11.512c-4.601-5.509-30.63-12.951-30.63-12.951l-0.81,6.283l-4.814-5.248
	c0,0,0,0-3.363,7.014c4.717,11.461,22.656,34.725,24.887,35.035c0,0,4.082-1.328,5.921-1.064c-0.643,0.217,0.202-0.641-4.26,2.766
	c16.753,22.2,38.908,29.072,41.457,30.729c1.503-0.15,14.351-7.139,19.448-11.193l17.637,9.313L216.277,360.8z M137.095,334.785
	l6.259-3.931l2.896-0.288l-1.402,2.108c-1.727,1.84-4.508,5.108-4.508,5.108L137.095,334.785z M150.52,336.05
	c-0.994,0.813-4.556,6.254-4.556,6.254l-3.628-2.937l5.656-5.656l3.172-0.5L150.52,336.05z M187.402,349.186
	c0,0-56.631-26.366-73.689-51.637l4.286-1.063c0,0,31.881,32.798,70.801,49.937c0.964,2.529,0.964,2.529,0.964,2.529
	L187.402,349.186z"/>
<path opacity="0.3" fill="none" stroke="#FFFFFF" stroke-miterlimit="10" d="M472.539,338.184l4.568-5.466c0,0,0,0-7.396-2.407
	c-10.74,6.187-31.436,27.037-31.447,29.289c0,0,1.854,3.871,1.836,5.729c-0.301-0.608,0.661,0.114-3.305-3.858
	c-19.795,19.534-23.686,42.401-24.99,45.147c0.346,1.469,8.968,13.282,13.658,17.802l-6.904,18.71l0.972,6.354l9.141-24.22
	c6.165-1.575,20.954-9.249,20.954-9.249s6.084-11.419,8.006-16.753c-0.233,0.152-4.084,1.927-6.48,2.49
	c-2.542,0.598-1.373-0.651-1.373-0.651s4.704-2.813,7.911-5.765c3.208-2.948,8.975-19.916,8.975-19.916s-0.447-0.871-1.616,0.381
	c-1.17,1.25-5.508,2.514-5.508,2.514s5.684-2.8,10.537-8.088c4.854-5.287,8.799-32.07,8.799-32.07L472.539,338.184z
	 M434.876,367.563l4.723,5.688l0.667,2.832l-2.274-1.111c-2.053-1.469-5.66-3.794-5.66-3.794L434.876,367.563z M431.026,373.362
	l6.352,4.861l0.914,3.079l-2.898-0.267c-0.938-0.878-6.801-3.688-6.801-3.688L431.026,373.362z M430.159,420.352
	c-2.379,1.29-2.379,1.29-2.379,1.29l-0.545-2.311c0,0,18.667-59.615,41.468-79.855l1.619,4.107
	C470.322,343.585,442.016,379.512,430.159,420.352z"/>
<path opacity="0.3" fill="none" stroke="#FFFFFF" stroke-miterlimit="10" d="M379.194,453.628c0,0-11.433-24.539-17.593-28.221
	c-6.163-3.682-12.41-4.74-12.41-4.74s4.52-0.027,5.996,0.836c1.479,0.864,1.658-0.097,1.658-0.097s-10.372-14.614-14.289-16.522
	c-3.916-1.91-9.229-3.265-9.229-3.265s-1.478-0.862,1.131-1.019c2.457-0.144,6.652,0.457,6.922,0.537
	c-3.365-4.562-12.459-13.769-12.459-13.769s-16.367-3.131-22.724-2.878l-15.679-20.598l0.885,6.367l11.962,15.957
	c-3.204,5.671-8.092,19.454-8.003,20.961c2.034,2.258,12.296,23.062,36.846,36.127c2.666-4.94,1.95-3.974,2.065-4.643
	c0.547,1.776-0.123,6.016-0.123,6.016c0.653,2.154,26.442,16.226,38.504,19.086c6.397-4.422,6.397-4.422,6.397-4.422l-5.938-3.932
	L379.194,453.628z M319.812,430.435c0,0,4.812-4.368,5.461-5.479l2.702-1.083l0.006,3.212l-4.698,6.475L319.812,430.435z
	 M328.627,438.017l-3.471-2.735c0,0,2.792-3.259,4.34-5.253l1.863-1.715l0.169,2.904L328.627,438.017z M369.069,455.271
	c-27.633-12.885-62.552-64.682-62.552-64.682l-0.139-2.371c0,0,0,0,2.648,0.558c23.027,35.751,60.419,62.096,60.419,62.096
	L369.069,455.271z"/>
<path opacity="0.3" fill="none" stroke="#FFFFFF" stroke-miterlimit="10" d="M161.723,445.43
	c-1.033-2.857-2.713-25.994-20.543-47.336c-4.328,3.576-3.301,2.946-3.66,3.523c0.162-1.852,2.379-5.527,2.379-5.527
	c0.203-2.242-18.396-24.982-28.494-32.171c-7.59,1.688-7.59,1.688-7.59,1.688l4.021,5.878l-6.304-0.636
	c0,0,1.356,27.039,5.679,32.768c4.326,5.729,9.717,9.062,9.717,9.062s-4.197-1.674-5.242-3.03c-1.045-1.357-1.572-0.534-1.572-0.534
	s4.111,17.443,7.021,20.686s7.32,6.498,7.32,6.498s1.045,1.354-1.429,0.517c-2.331-0.792-5.993-2.927-6.212-3.103
	c1.4,5.493,6.361,17.444,6.361,17.444s13.987,9.06,19.972,11.217l6.778,24.982l1.574-6.229l-5.078-19.288
	C151.526,457.789,161.239,446.859,161.723,445.43z M147.824,414.684c0,0-6.104,2.238-7.122,3.021l-2.91-0.014l1.203-2.979
	l6.789-4.229L147.824,414.684z M137.262,409.551l5.246-5.207l2.188,3.842c0,0-3.812,1.967-5.997,3.23l-2.372,0.889L137.262,409.551z
	 M109.528,377.072l2.005-3.934c20.754,22.334,33.616,83.465,33.616,83.465l-0.766,2.248c0,0,0,0-2.244-1.514
	C134.256,415.551,109.528,377.072,109.528,377.072z"/>
<path opacity="0.3" fill="none" stroke="#FFFFFF" stroke-miterlimit="10" d="M301.954,432.001l-5.646,4.345l0.283-6.332
	c0,0-26.922,2.854-32.4,7.485c-5.481,4.638-8.512,10.201-8.512,10.201s1.44-4.283,2.736-5.399c1.297-1.119,0.447-1.602,0.447-1.602
	s-17.189,5.07-20.268,8.156c-3.076,3.085-6.08,7.67-6.08,7.67s-1.295,1.117-0.597-1.399c0.662-2.37,2.591-6.146,2.753-6.373
	c-5.407,1.703-17.064,7.317-17.064,7.317s-8.271,14.466-10.094,20.561l-24.572,8.149l6.309,1.229l18.977-6.14
	c4.324,4.871,15.777,13.967,17.231,14.371c2.796-1.19,25.805-4.147,46.127-23.132c-3.809-4.124-3.125-3.135-3.721-3.46
	c1.857,0.06,5.65,2.067,5.65,2.067c2.25,0.08,23.926-19.75,30.543-30.229C301.954,432.001,301.954,432.001,301.954,432.001z
	 M255.387,478.659c0,0-2.57-5.972-3.408-6.942l-0.147-2.906l3.04,1.035l4.6,6.545L255.387,478.659z M261.706,475.178
	c0,0-2.177-3.699-3.562-5.811l-1.018-2.318l2.803,0.782l5.489,4.95L261.706,475.178z M213.384,478.309l-2.287-0.64
	c0,0,0,0,1.386-2.325c41.289-10.185,78.339-37.006,78.339-37.006l4.037,1.785C273.708,462.082,213.384,478.309,213.384,478.309z"/>
<path opacity="0.3" fill="none" stroke="#FFFFFF" stroke-miterlimit="10" d="M114.718,501.926c0,0-11.433-24.539-17.593-28.221
	c-6.163-3.682-12.41-4.74-12.41-4.74s4.52-0.027,5.996,0.836c1.479,0.864,1.658-0.097,1.658-0.097s-10.372-14.614-14.289-16.522
	c-3.916-1.91-9.229-3.265-9.229-3.265s-1.478-0.862,1.131-1.019c2.457-0.144,6.652,0.457,6.922,0.537
	c-3.365-4.562-12.459-13.769-12.459-13.769s-16.367-3.131-22.724-2.878l-15.679-20.598l0.885,6.367l11.962,15.957
	c-3.204,5.671-8.092,19.454-8.003,20.961c2.034,2.258,12.296,23.062,36.846,36.127c2.666-4.94,1.95-3.974,2.065-4.643
	c0.547,1.776-0.123,6.016-0.123,6.016c0.653,2.154,26.442,16.226,38.504,19.086c6.397-4.422,6.397-4.422,6.397-4.422l-5.938-3.932
	L114.718,501.926z M55.336,478.732c0,0,4.812-4.368,5.461-5.479l2.702-1.083l0.006,3.212l-4.698,6.475L55.336,478.732z
	 M64.151,486.314l-3.471-2.735c0,0,2.792-3.259,4.34-5.253l1.863-1.715l0.169,2.904L64.151,486.314z M104.593,503.568
	c-27.633-12.885-62.552-64.682-62.552-64.682l-0.139-2.371c0,0,0,0,2.648,0.558c23.027,35.751,60.419,62.096,60.419,62.096
	L104.593,503.568z"/>
<path opacity="0.3" fill="none" stroke="#FFFFFF" stroke-miterlimit="10" d="M349.277,493.836c0,0,0,0,3.201,7.087
	c11.809,3.77,41.16,5.012,42.832,3.503c0,0,1.611-3.978,2.996-5.218c-0.246,0.633-0.359-0.564-0.624,5.042
	c27.771,1.465,47.291-11.067,50.198-11.954c0.854-1.246,3.773-15.578,3.951-22.089l18.478-7.504l4.041-4.998l-24.057,9.563
	c-5.317-3.494-20.952-9.25-20.952-9.25s-12.537,3.197-17.773,5.371c0.271,0.07,4.176,1.719,6.207,3.11
	c2.154,1.476,0.443,1.454,0.443,1.454s-5.248-1.579-9.589-1.962c-4.341-0.384-20.765,6.788-20.765,6.788s-0.34,0.916,1.373,0.938
	c1.711,0.021,5.567,2.375,5.567,2.375s-5.899-2.313-13.078-2.338c-7.176-0.022-29.625,15.108-29.625,15.108l4.289,4.664
	L349.277,493.836z M409.669,492.53l1.661-2.748l1.757,2.32c-0.017,1.284,1.854,7.51,1.854,7.51l-4.586,0.888L409.669,492.53z
	 M403.478,501.563l1.021-7.32l1.643-2.402l0.712,2.43c0.3,2.508,1.011,6.739,1.011,6.739L403.478,501.563z M359.932,495.491
	l1.945-3.963c0,0,45.619-3.293,83.785-22.049c2.557,0.889,2.557,0.889,2.557,0.889l-1.34,1.96
	C446.879,472.328,390.25,498.702,359.932,495.491z"/>
</svg>
