<?xml version="1.0" encoding="utf-8"?>
<!-- Generator: Adobe Illustrator 16.0.0, SVG Export Plug-In . SVG Version: 6.00 Build 0)  -->
<!DOCTYPE svg PUBLIC "-//W3C//DTD SVG 1.1//EN" "http://www.w3.org/Graphics/SVG/1.1/DTD/svg11.dtd">
<svg version="1.1" id="Layer_1" xmlns="http://www.w3.org/2000/svg" xmlns:xlink="http://www.w3.org/1999/xlink" x="0px" y="0px"
	 width="487px" height="308px" viewBox="0 0 487 308" enable-background="new 0 0 487 308" xml:space="preserve">
<g>
	<g>
		<g>
			<path fill="none" stroke="#FCFCFC" stroke-miterlimit="10" d="M406.476,171.62l4.568-5.465c0,0,0,0-7.396-2.408
				c-10.74,6.187-31.435,27.037-31.447,29.289c0,0,1.854,3.871,1.836,5.729c-0.3-0.608,0.661,0.115-3.304-3.858
				c-19.796,19.534-23.686,42.402-24.991,45.147c0.381,1.617,10.781,15.758,14.939,18.926c3.971,0.286,22.882-9.528,22.882-9.528
				s6.083-11.419,8.005-16.753c-0.233,0.153-4.083,1.927-6.48,2.491c-2.542,0.597-1.373-0.652-1.373-0.652s4.704-2.814,7.911-5.764
				c3.208-2.949,8.975-19.917,8.975-19.917s-0.448-0.87-1.617,0.381c-1.17,1.25-5.508,2.514-5.508,2.514s5.684-2.8,10.538-8.088
				c4.853-5.287,8.798-32.07,8.798-32.07L406.476,171.62z M368.812,201l4.723,5.687l0.667,2.832l-2.274-1.111
				c-2.053-1.469-5.66-3.794-5.66-3.794L368.812,201z M364.963,206.799l6.352,4.861l0.913,3.079l-2.898-0.266
				c-0.938-0.878-6.8-3.689-6.8-3.689L364.963,206.799z M364.096,253.788c-2.379,1.29-2.379,1.29-2.379,1.29l-0.545-2.311
				c0,0,18.667-59.614,41.468-79.855l1.619,4.108C404.259,177.021,375.952,212.948,364.096,253.788z"/>
		</g>
	</g>
	<polygon fill="none" stroke="#FCFCFC" stroke-miterlimit="10" points="352.496,276.567 359.717,257 362.938,257.83 
		353.468,282.921 	"/>
</g>
<g>
	<g>
		<g>
			<path fill="none" stroke="#FCFCFC" stroke-miterlimit="10" d="M314.315,100.644c-4.328,3.576-3.302,2.947-3.66,3.524
				c0.162-1.852,2.378-5.528,2.378-5.528c0.203-2.242-18.396-24.982-28.494-32.17c-7.59,1.688-7.59,1.688-7.59,1.688l4.022,5.878
				l-6.304-0.635c0,0,1.357,27.039,5.679,32.767c4.326,5.729,9.716,9.062,9.716,9.062s-4.197-1.674-5.242-3.03
				c-1.044-1.357-1.572-0.534-1.572-0.534s4.111,17.443,7.022,20.686c2.909,3.242,7.32,6.497,7.32,6.497s1.045,1.354-1.429,0.517
				c-2.331-0.792-5.993-2.927-6.212-3.102c1.401,5.493,6.362,17.444,6.362,17.444s17.881,11.583,21.861,11.679
				c4.443-2.755,16.152-15.833,16.686-17.406C333.824,145.123,332.145,121.987,314.315,100.644z M310.397,112.101l5.246-5.207
				l2.187,3.842c0,0-3.812,1.967-5.997,3.231l-2.372,0.889L310.397,112.101z M317.518,161.402c0,0,0,0-2.244-1.513
				c-7.884-41.788-32.612-80.266-32.612-80.266l2.005-3.933c20.754,22.334,33.616,83.464,33.616,83.464L317.518,161.402z
				 M313.836,120.256l-2.91-0.014l1.203-2.978l6.789-4.23l2.04,4.201C320.958,117.235,314.854,119.472,313.836,120.256z"/>
		</g>
	</g>
	<polygon fill="none" stroke="#FCFCFC" stroke-miterlimit="10" points="324.635,183.678 319.324,163.508 316.038,164.025 
		323.06,189.907 	"/>
</g>
<g>
	<g>
		<g>
			<path fill="none" stroke="#FCFCFC" stroke-miterlimit="10" d="M233.583,28.719l5.461-4.573c0,0,0,0-6.854-3.676
				c-11.664,4.194-35.713,21.064-36.124,23.278c0,0,1.141,4.138,0.796,5.963c-0.188-0.652,0.63,0.23-2.571-4.381
				c-22.933,15.733-30.798,37.556-32.568,40.027c0.089,1.659,7.831,17.413,11.365,21.265c3.857,0.984,24.204-5.338,24.204-5.338
				s8.003-10.167,10.836-15.077c-0.256,0.109-4.359,1.176-6.818,1.308c-2.608,0.139-1.237-0.885-1.237-0.885
				s5.127-1.939,8.805-4.277c3.678-2.336,12.349-18.02,12.349-18.02s-0.288-0.936-1.659,0.089c-1.373,1.024-5.865,1.502-5.865,1.502
				s6.088-1.753,11.8-6.101c5.709-4.348,14.32-30.014,14.32-30.014L233.583,28.719z M191.325,50.99l3.645,6.431l0.157,2.905
				l-2.042-1.496c-1.761-1.808-4.901-4.733-4.901-4.733L191.325,50.99z M186.513,56.018l5.394,5.906l0.355,3.192l-2.806-0.773
				c-0.769-1.03-6.042-4.832-6.042-4.832L186.513,56.018z M177.365,102.116c-2.569,0.85-2.569,0.85-2.569,0.85l-0.128-2.37
				c0,0,28.896-55.383,54.912-71.282l0.868,4.33C230.448,33.644,196.244,64.01,177.365,102.116z"/>
		</g>
	</g>
	<polygon fill="none" stroke="#FCFCFC" stroke-miterlimit="10" points="161.927,122.49 172.488,104.505 175.511,105.889 
		161.761,128.916 	"/>
</g>
<g>
	<g>
		<g>
			<path fill="none" stroke="#FCFCFC" stroke-miterlimit="10" d="M335.46,289.555c0,0-11.433-24.54-17.593-28.221
				c-6.163-3.681-12.41-4.74-12.41-4.74s4.519-0.027,5.996,0.836c1.479,0.864,1.659-0.097,1.659-0.097s-10.373-14.614-14.29-16.523
				c-3.916-1.91-9.228-3.264-9.228-3.264s-1.478-0.863,1.13-1.018c2.458-0.144,6.653,0.456,6.922,0.536
				c-3.365-4.562-12.458-13.768-12.458-13.768s-20.926-4.004-24.649-2.595c-3.08,4.224-9.008,20.746-8.91,22.404
				c2.034,2.258,12.296,23.062,36.846,36.127c2.665-4.94,1.95-3.973,2.065-4.642c0.547,1.776-0.123,6.016-0.123,6.016
				c0.654,2.154,26.443,16.225,38.504,19.085c6.398-4.421,6.398-4.421,6.398-4.421l-5.939-3.932L335.46,289.555z M276.078,266.361
				c0,0,4.813-4.368,5.461-5.478l2.702-1.083l0.006,3.212l-4.698,6.474L276.078,266.361z M284.893,273.943l-3.471-2.735
				c0,0,2.792-3.259,4.34-5.253l1.863-1.715l0.169,2.905L284.893,273.943z M325.335,291.197
				c-27.633-12.884-62.552-64.682-62.552-64.682l-0.138-2.37c0,0,0,0,2.648,0.557c23.028,35.751,60.419,62.096,60.419,62.096
				L325.335,291.197z"/>
		</g>
	</g>
	<polygon fill="none" stroke="#FCFCFC" stroke-miterlimit="10" points="247.67,206.187 260.18,222.875 263.029,221.16 
		246.785,199.82 	"/>
</g>
<g>
	<g>
		<g>
			<path fill="none" stroke="#FCFCFC" stroke-miterlimit="10" d="M252.883,124.994l4.568-5.465c0,0,0,0-7.396-2.408
				c-10.74,6.187-31.435,27.037-31.447,29.289c0,0,1.854,3.871,1.836,5.729c-0.3-0.608,0.661,0.115-3.304-3.858
				c-19.796,19.534-23.686,42.402-24.991,45.147c0.381,1.617,10.781,15.758,14.939,18.926c3.971,0.286,22.882-9.528,22.882-9.528
				s6.083-11.419,8.005-16.753c-0.233,0.153-4.083,1.927-6.48,2.491c-2.542,0.597-1.373-0.652-1.373-0.652s4.704-2.814,7.911-5.764
				c3.208-2.949,8.975-19.917,8.975-19.917s-0.448-0.87-1.617,0.381c-1.17,1.25-5.508,2.514-5.508,2.514s5.684-2.8,10.538-8.088
				c4.853-5.287,8.798-32.07,8.798-32.07L252.883,124.994z M215.219,154.374l4.723,5.687l0.667,2.832l-2.274-1.111
				c-2.053-1.469-5.66-3.794-5.66-3.794L215.219,154.374z M211.37,160.173l6.352,4.861l0.913,3.079l-2.898-0.266
				c-0.938-0.878-6.8-3.689-6.8-3.689L211.37,160.173z M210.503,207.162c-2.379,1.29-2.379,1.29-2.379,1.29l-0.545-2.311
				c0,0,18.667-59.614,41.468-79.855l1.619,4.108C250.666,130.395,222.359,166.322,210.503,207.162z"/>
		</g>
	</g>
	<polygon fill="none" stroke="#FCFCFC" stroke-miterlimit="10" points="198.903,229.941 206.124,210.374 209.345,211.204 
		199.875,236.295 	"/>
</g>
<g>
	<g>
		<g>
			<path fill="none" stroke="#FCFCFC" stroke-miterlimit="10" d="M224.058,272.734l4.289-4.664c0,0-22.449-15.131-29.625-15.108
				c-7.179,0.024-13.078,2.338-13.078,2.338s3.857-2.354,5.568-2.375c1.713-0.022,1.372-0.938,1.372-0.938
				s-16.423-7.173-20.764-6.789c-4.341,0.383-9.589,1.962-9.589,1.962s-1.711,0.022,0.443-1.454c2.031-1.391,5.936-3.04,6.207-3.11
				c-5.236-2.174-17.773-5.372-17.773-5.372s-19.994,7.36-22.457,10.487c-0.462,5.207,2.979,22.42,3.918,23.791
				c2.907,0.886,22.427,13.419,50.198,11.954c-0.265-5.607-0.378-4.409-0.624-5.042c1.385,1.24,2.996,5.218,2.996,5.218
				c1.672,1.508,31.023,0.266,42.832-3.503c3.202-7.087,3.202-7.087,3.202-7.087L224.058,272.734z M170.094,279.706l-4.585-0.888
				c0,0,1.871-6.225,1.854-7.509l1.757-2.321l1.661,2.749L170.094,279.706z M172.587,280.216c0,0,0.711-4.232,1.01-6.739l0.712-2.43
				l1.643,2.402l1.02,7.32L172.587,280.216z M133.571,251.534l-1.34-1.96c0,0,0,0,2.556-0.889
				c38.166,18.757,83.786,22.049,83.786,22.049l1.945,3.964C190.199,277.908,133.571,251.534,133.571,251.534z"/>
		</g>
	</g>
	<polygon fill="none" stroke="#FCFCFC" stroke-miterlimit="10" points="110.14,241.909 129.464,249.757 131.021,246.818 
		106.099,236.911 	"/>
</g>
<g>
	<g>
		<g>
			<path fill="none" stroke="#FCFCFC" stroke-miterlimit="10" d="M462.763,215.979c-4.391,3.498-3.354,2.889-3.721,3.459
				c0.193-1.849,2.474-5.484,2.474-5.484c0.243-2.239-17.952-25.303-27.921-32.668c-7.619,1.553-7.619,1.553-7.619,1.553
				l3.918,5.948l-6.291-0.745c0,0,0.88,27.058,5.1,32.861c4.225,5.805,9.555,9.232,9.555,9.232s-4.167-1.748-5.188-3.123
				c-1.021-1.376-1.563-0.562-1.563-0.562s3.804,17.512,6.656,20.807c2.852,3.295,7.205,6.625,7.205,6.625s1.021,1.373-1.438,0.492
				c-2.316-0.832-5.939-3.031-6.156-3.211c1.305,5.518,6.054,17.553,6.054,17.553s17.674,11.896,21.651,12.064
				c4.491-2.676,16.429-15.545,16.99-17.108C481.483,260.795,480.213,237.633,462.763,215.979z M458.644,227.363l5.337-5.113
				l2.119,3.879c0,0-3.849,1.9-6.054,3.127l-2.389,0.846L458.644,227.363z M464.892,276.785c0,0,0,0-2.217-1.553
				c-7.145-41.922-31.19-80.83-31.19-80.83l2.075-3.897c20.355,22.698,32.137,84.046,32.137,84.046L464.892,276.785z
				 M461.938,235.578l-2.909-0.064l1.256-2.956l6.861-4.109l1.966,4.235C469.111,232.684,462.969,234.812,461.938,235.578z"/>
		</g>
	</g>
	<polygon fill="none" stroke="#FCFCFC" stroke-miterlimit="10" points="471.614,299.18 466.661,278.92 463.366,279.379 
		469.929,305.383 	"/>
</g>
<g>
	<g>
		<g>
			<path fill="none" stroke="#FCFCFC" stroke-miterlimit="10" d="M60.313,113.248c-0.05,0.275-1.422,4.285-2.667,6.41
				c-1.323,2.252-1.42,0.543-1.42,0.543s1.208-5.347,1.286-9.703c0.079-4.356-8.226-20.237-8.226-20.237s-0.938-0.276-0.84,1.433
				c0.098,1.709-1.98,5.721-1.98,5.721s1.895-6.046,1.417-13.208c-0.48-7.16-17.146-28.495-17.146-28.495l-4.352,4.604l-0.805-7.078
				c0,0,0,0-6.845,3.692c-2.932,12.043-2.117,41.408-0.496,42.972c0,0,4.081,1.329,5.414,2.624c-0.647-0.203,0.54-0.399-5.072-0.271
				c0.482,27.807,14.353,46.4,15.438,49.239c1.434,0.84,18.845,3.067,24.007,2.242c2.947-2.675,8.891-23.136,8.891-23.136
				S62.849,118.32,60.313,113.248z M21.667,107.851l7.375,0.505l2.51,1.471l-2.374,0.879c-2.479,0.474-6.651,1.48-6.651,1.48
				L21.667,107.851z M31.777,116.771c-1.283,0.074-7.362,2.377-7.362,2.377l-1.206-4.512l7.901-1.244l2.859,1.465L31.777,116.771z
				 M55.917,150.297l-2.048-1.2c0,0-30.274-54.642-29.194-85.112l4.09,1.663c0,0,6.477,45.279,27.859,82.038
				C55.917,150.297,55.917,150.297,55.917,150.297z"/>
		</g>
	</g>
	<polygon fill="none" stroke="#FCFCFC" stroke-miterlimit="10" points="65.111,171.797 55.928,153.07 58.751,151.312 
		70.381,175.478 	"/>
</g>
<g>
	<g>
		<g>
			<path fill="none" stroke="#FCFCFC" stroke-miterlimit="10" d="M178.04,137.675l-5.646,4.344l0.284-6.331
				c0,0-26.922,2.853-32.401,7.485c-5.481,4.637-8.511,10.201-8.511,10.201s1.44-4.283,2.736-5.4
				c1.297-1.118,0.447-1.601,0.447-1.601s-17.189,5.07-20.267,8.156c-3.077,3.085-6.08,7.67-6.08,7.67s-1.296,1.117-0.597-1.399
				c0.662-2.371,2.591-6.146,2.753-6.373c-5.407,1.703-17.064,7.317-17.064,7.317s-10.576,18.495-10.451,22.475
				c2.996,4.284,16.702,15.251,18.302,15.696c2.796-1.191,25.804-4.148,46.127-23.132c-3.809-4.124-3.125-3.134-3.721-3.46
				c1.857,0.06,5.65,2.068,5.65,2.068c2.25,0.08,23.926-19.75,30.544-30.23C178.04,137.675,178.04,137.675,178.04,137.675z
				 M131.473,184.333c0,0-2.57-5.971-3.409-6.942l-0.147-2.907l3.04,1.036l4.599,6.544L131.473,184.333z M137.792,180.851
				c0,0-2.177-3.698-3.561-5.81l-1.018-2.318l2.803,0.782l5.489,4.95L137.792,180.851z M89.47,183.982l-2.287-0.639
				c0,0,0,0,1.386-2.325c41.288-10.185,78.339-37.006,78.339-37.006l4.038,1.785C149.794,167.756,89.47,183.982,89.47,183.982z"/>
		</g>
	</g>
	<polygon fill="none" stroke="#FCFCFC" stroke-miterlimit="10" points="65.337,191.683 85.181,185.264 84.484,182.012 
		59.028,190.454 	"/>
</g>
<g>
	<g>
		<g>
			<path fill="none" stroke="#FCFCFC" stroke-miterlimit="10" d="M476.812,81.246l-4.957,5.115l-0.638-6.304
				c0,0-26.224,6.727-30.974,12.105c-4.75,5.383-6.938,11.329-6.938,11.329s0.802-4.446,1.922-5.741
				c1.122-1.294,0.21-1.648,0.21-1.648s-16.271,7.512-18.868,11.011c-2.597,3.498-4.903,8.471-4.903,8.471s-1.12,1.294-0.793-1.298
				c0.311-2.442,1.671-6.456,1.799-6.706c-5.103,2.471-15.821,9.718-15.821,9.718s-7.781,19.832-7.081,23.752
				c3.586,3.804,18.737,12.665,20.386,12.875c2.594-1.585,24.929-7.849,42.282-29.579c-4.366-3.528-3.546-2.647-4.183-2.884
				c1.847-0.211,5.891,1.227,5.891,1.227c2.238-0.248,20.808-23.013,25.834-34.342C476.812,81.246,476.812,81.246,476.812,81.246z
				 M437.506,134.165c0,0-3.409-5.533-4.381-6.376l-0.567-2.853l3.157,0.584l5.5,5.808L437.506,134.165z M443.252,129.805
				c0,0-2.69-3.346-4.365-5.232l-1.344-2.147l2.887,0.368l6.149,4.102L443.252,129.805z M395.896,139.912l-2.356-0.301
				c0,0,0,0,1.035-2.501c39.375-16.066,72.141-47.978,72.141-47.978l4.255,1.18C453.229,115.106,395.896,139.912,395.896,139.912z"
				/>
		</g>
	</g>
	<polygon fill="none" stroke="#FCFCFC" stroke-miterlimit="10" points="373.136,151.032 391.839,141.802 390.677,138.685 
		366.716,150.73 	"/>
</g>
<g>
	<g>
		<g>
			<path fill="none" stroke="#FCFCFC" stroke-miterlimit="10" d="M50.254,210.813c-3.062,4.705-2.27,3.799-2.439,4.456
				c-0.4-1.813,0.618-5.984,0.618-5.984c-0.476-2.201-25.02-18.346-36.803-22.188c-6.741,3.877-6.741,3.877-6.741,3.877l5.596,4.409
				L4.28,196.66c0,0,9.373,25.398,15.209,29.573c5.84,4.175,11.979,5.746,11.979,5.746s-4.505-0.344-5.908-1.327
				c-1.402-0.982-1.661-0.04-1.661-0.04s9.135,15.418,12.882,17.645c3.745,2.226,8.927,4.012,8.927,4.012s1.401,0.981-1.21,0.921
				c-2.461-0.059-6.593-1.002-6.854-1.104c2.978,4.823,11.282,14.745,11.282,14.745s20.526,5.713,24.352,4.616
				c3.418-3.957,10.685-19.936,10.724-21.595C82.161,247.435,73.647,225.855,50.254,210.813z M61.551,224.662
				c0,0-5.157,3.958-5.894,5.01l-2.782,0.857l0.259-3.2l5.215-6.065L61.551,224.662z M49.938,222.917l3.451-6.537l3.235,3.014
				c0,0-3.052,3.018-4.759,4.876l-1.999,1.558L49.938,222.917z M71.462,267.842c0,0,0,0-2.594-0.773
				C48.86,229.542,13.767,200.21,13.767,200.21l0.739-4.353c26.478,15.114,57.015,69.61,57.015,69.61L71.462,267.842z"/>
		</g>
	</g>
	<polygon fill="none" stroke="#FCFCFC" stroke-miterlimit="10" points="84.909,286.972 73.815,269.311 70.834,270.785 
		85.266,293.389 	"/>
</g>
<g>
	<g>
		<g>
			<path fill="none" stroke="#FCFCFC" stroke-miterlimit="10" d="M363.662,24.727c0,0,0,0-3.201-7.087
				c-11.809-3.769-41.16-5.011-42.832-3.503c0,0-1.611,3.978-2.996,5.218c0.246-0.633,0.359,0.565,0.623-5.042
				c-27.771-1.465-47.291,11.068-50.197,11.954c-0.939,1.371-4.381,18.584-3.918,23.791c2.463,3.127,22.457,10.487,22.457,10.487
				s12.537-3.198,17.773-5.372c-0.271-0.07-4.176-1.72-6.207-3.11c-2.154-1.477-0.443-1.454-0.443-1.454s5.248,1.579,9.588,1.962
				c4.342,0.384,20.764-6.789,20.764-6.789s0.342-0.916-1.371-0.938c-1.711-0.021-5.568-2.375-5.568-2.375s5.898,2.313,13.078,2.338
				c7.176,0.022,29.625-15.108,29.625-15.108l-4.289-4.664L363.662,24.727z M309.459,16.998l-1.02,7.32l-1.643,2.402l-0.711-2.43
				c-0.299-2.507-1.01-6.739-1.01-6.739L309.459,16.998z M302.582,18.062l0.688,7.969l-1.66,2.749l-1.758-2.321
				c0.018-1.284-1.854-7.509-1.854-7.509L302.582,18.062z M351.062,27.033c0,0-45.621,3.292-83.787,22.049
				c-2.555-0.889-2.555-0.889-2.555-0.889l1.34-1.96c0,0,56.627-26.374,86.947-23.164L351.062,27.033z"/>
		</g>
	</g>
	<polygon fill="none" stroke="#FCFCFC" stroke-miterlimit="10" points="242.629,55.858 261.953,48.011 263.51,50.949 
		238.588,60.856 	"/>
</g>
<g>
	<g>
		<g>
			<path fill="none" stroke="#FCFCFC" stroke-miterlimit="10" d="M447.466,13.993l5.715-4.25c0,0,0,0-6.63-4.065
				c-11.886,3.515-36.868,18.973-37.404,21.16c0,0,0.901,4.196,0.452,6c-0.152-0.662,0.615,0.266-2.316-4.521
				c-23.8,14.387-32.909,35.72-34.816,38.085c-0.007,1.662,6.813,17.836,10.121,21.884c3.794,1.204,24.471-3.938,24.471-3.938
				s8.576-9.688,11.688-14.428c-0.264,0.095-4.421,0.923-6.883,0.913c-2.611-0.011-1.184-0.954-1.184-0.954s5.229-1.641,9.035-3.762
				c3.808-2.122,13.365-17.28,13.365-17.28s-0.231-0.95-1.661-0.006c-1.428,0.943-5.941,1.163-5.941,1.163s6.18-1.399,12.134-5.412
				c5.949-4.012,16.023-29.14,16.023-29.14L447.466,13.993z M403.994,33.793l3.269,6.629l-0.01,2.91l-1.953-1.611
				c-1.655-1.906-4.62-5.008-4.62-5.008L403.994,33.793z M398.902,38.536l5.044,6.207l0.171,3.207l-2.758-0.933
				c-0.707-1.073-5.751-5.171-5.751-5.171L398.902,38.536z M387.115,84.032c-2.613,0.7-2.613,0.7-2.613,0.7l0.008-2.374
				c0,0,32.036-53.627,58.925-68.002l0.617,4.373C444.052,18.728,408.156,47.076,387.115,84.032z"/>
		</g>
	</g>
	<polygon fill="none" stroke="#FCFCFC" stroke-miterlimit="10" points="370.529,103.482 382.109,86.135 385.048,87.692 
		369.994,109.887 	"/>
</g>
<g>
	<g>
		<g>
			<path fill="none" stroke="#FCFCFC" stroke-miterlimit="10" d="M119.938,48.576c0,0-10.518-7.536-15.551-10.145
				c0.121,0.251,1.371,4.302,1.614,6.752c0.257,2.599-0.828,1.275-0.828,1.275s-2.169-5.034-4.67-8.603
				c-2.5-3.568-18.559-11.523-18.559-11.523s-0.922,0.33,0.164,1.653c1.085,1.325,1.766,5.792,1.766,5.792
				s-2.026-6.003-6.628-11.512c-4.601-5.508-30.63-12.95-30.63-12.95l-0.81,6.283l-4.814-5.249c0,0,0,0-3.363,7.014
				c4.717,11.461,22.656,34.725,24.887,35.035c0,0,4.082-1.327,5.921-1.064c-0.643,0.217,0.202-0.64-4.26,2.766
				C80.93,76.3,103.085,83.172,105.634,84.828c1.653-0.165,17.042-8.609,20.73-12.314C127.173,68.617,119.938,48.576,119.938,48.576
				z M69.964,56.809l6.259-3.931l2.896-0.288l-1.402,2.108c-1.727,1.84-4.508,5.109-4.508,5.109L69.964,56.809z M83.388,58.073
				c-0.994,0.814-4.555,6.254-4.555,6.254l-3.628-2.937l5.656-5.656l3.172-0.499L83.388,58.073z M120.271,71.209
				c0,0-56.631-26.366-73.689-51.637l4.286-1.063c0,0,31.881,32.797,70.801,49.937c0.964,2.528,0.964,2.528,0.964,2.528
				L120.271,71.209z"/>
		</g>
	</g>
	<polygon fill="none" stroke="#FCFCFC" stroke-miterlimit="10" points="142.719,82.948 124.275,73.209 125.522,70.126 
		149.146,82.823 	"/>
</g>
</svg>
