<?xml version="1.0" encoding="utf-8"?>
<!-- Generator: Adobe Illustrator 16.0.0, SVG Export Plug-In . SVG Version: 6.00 Build 0)  -->
<!DOCTYPE svg PUBLIC "-//W3C//DTD SVG 1.1//EN" "http://www.w3.org/Graphics/SVG/1.1/DTD/svg11.dtd">
<svg version="1.1" id="Layer_1" xmlns="http://www.w3.org/2000/svg" xmlns:xlink="http://www.w3.org/1999/xlink" x="0px" y="0px"
	 width="108.333px" height="186.364px" viewBox="0 0 108.333 186.364" enable-background="new 0 0 108.333 186.364"
	 xml:space="preserve">
<g opacity="0.3">
	<g>
		<g>
			<path fill="none" stroke="#FFFFFF" stroke-miterlimit="10" d="M95.625,17.657l6.799-8.135c0,0,0,0-11.008-3.583
				C75.43,15.146,44.63,46.18,44.611,49.532c0,0,2.759,5.762,2.733,8.527c-0.447-0.905,0.983,0.171-4.918-5.743
				C12.962,81.391,7.173,115.426,5.23,119.513c0.566,2.407,16.047,23.452,22.236,28.168c5.909,0.426,34.056-14.183,34.056-14.183
				s9.055-16.996,11.915-24.935c-0.349,0.229-6.077,2.868-9.646,3.708c-3.783,0.889-2.043-0.971-2.043-0.971s7-4.189,11.774-8.579
				S86.879,73.08,86.879,73.08s-0.666-1.296-2.406,0.566c-1.741,1.861-8.197,3.742-8.197,3.742s8.459-4.167,15.684-12.038
				c7.225-7.87,13.096-47.733,13.096-47.733L95.625,17.657z M39.566,61.384l7.029,8.465l0.992,4.214l-3.385-1.654
				c-3.056-2.185-8.425-5.646-8.425-5.646L39.566,61.384z M33.837,70.015l9.453,7.236l1.359,4.582l-4.313-0.395
				c-1.396-1.307-10.12-5.492-10.12-5.492L33.837,70.015z M32.546,139.954c-3.54,1.92-3.54,1.92-3.54,1.92l-0.812-3.438
				c0,0,27.784-88.728,61.721-118.854l2.41,6.115C92.325,25.695,50.194,79.167,32.546,139.954z"/>
		</g>
	</g>
	<polygon fill="none" stroke="#FFFFFF" stroke-miterlimit="10" points="15.283,173.858 26.029,144.734 30.823,145.969 
		16.728,183.314 	"/>
</g>
</svg>
