<?xml version="1.0" encoding="utf-8"?>
<!-- Generator: Adobe Illustrator 16.0.0, SVG Export Plug-In . SVG Version: 6.00 Build 0)  -->
<!DOCTYPE svg PUBLIC "-//W3C//DTD SVG 1.1//EN" "http://www.w3.org/Graphics/SVG/1.1/DTD/svg11.dtd">
<svg version="1.1" id="Layer_1" xmlns="http://www.w3.org/2000/svg" xmlns:xlink="http://www.w3.org/1999/xlink" x="0px" y="0px"
	 width="371.97px" height="162.879px" viewBox="0 0 371.97 162.879" enable-background="new 0 0 371.97 162.879"
	 xml:space="preserve">
<text transform="matrix(1 0 0 1 99.2393 115.2549)" fill="#FFFFFF" font-family="'MuseoSlab-500'" font-size="93.1162" letter-spacing="-2">Jott.ly</text>
<g>
	<g>
		<g>
			<path fill="#FFFFFF" d="M88.922,17.984l5.705-6.827c0,0,0,0-9.237-3.007C71.974,15.877,46.128,41.921,46.11,44.733
				c0,0,2.315,4.834,2.295,7.156c-0.376-0.761,0.825,0.142-4.128-4.82C19.553,71.469,14.694,100.03,13.063,103.46
				c0.477,2.021,13.466,19.682,18.66,23.639c4.958,0.357,28.578-11.902,28.578-11.902s7.6-14.262,10-20.924
				c-0.293,0.191-5.1,2.406-8.095,3.112c-3.176,0.744-1.715-0.814-1.715-0.814s5.875-3.517,9.881-7.199
				c4.007-3.684,11.21-24.877,11.21-24.877s-0.561-1.088-2.021,0.476c-1.46,1.562-6.878,3.14-6.878,3.14s7.098-3.497,13.161-10.102
				c6.062-6.605,10.988-40.058,10.988-40.058L88.922,17.984z M41.878,54.68l5.898,7.104l0.833,3.536l-2.841-1.389
				c-2.564-1.832-7.069-4.737-7.069-4.737L41.878,54.68z M37.069,61.922l7.934,6.073l1.142,3.844l-3.62-0.33
				c-1.173-1.097-8.494-4.609-8.494-4.609L37.069,61.922z M35.987,120.612c-2.971,1.611-2.971,1.611-2.971,1.611l-0.682-2.886
				c0,0,23.316-74.459,51.795-99.74l2.022,5.132C86.152,24.729,50.796,69.603,35.987,120.612z"/>
		</g>
	</g>
	<polygon fill="#FFFFFF" points="21.499,149.065 30.518,124.624 34.54,125.661 22.713,157 	"/>
</g>
</svg>
