<?xml version="1.0" encoding="utf-8"?>
<!-- Generator: Adobe Illustrator 16.0.0, SVG Export Plug-In . SVG Version: 6.00 Build 0)  -->
<!DOCTYPE svg PUBLIC "-//W3C//DTD SVG 1.1//EN" "http://www.w3.org/Graphics/SVG/1.1/DTD/svg11.dtd">
<svg version="1.1" id="Layer_1" xmlns="http://www.w3.org/2000/svg" xmlns:xlink="http://www.w3.org/1999/xlink" x="0px" y="0px"
	 width="371.971px" height="162.879px" viewBox="0 0 371.971 162.879" enable-background="new 0 0 371.971 162.879"
	 xml:space="preserve">
<g enable-background="new    ">
	<path fill="#FFFFFF" d="M101.473,93.095h9.032v2.887c0,6.425,2.886,12.104,10.149,12.104c5.214,0,9.963-3.166,9.963-12.104V56.689
		h-9.497v-7.17h26.164v7.17h-7.356V96.54c0,14.06-9.869,19.832-19.367,19.832c-9.404,0-19.087-5.4-19.087-19.46V93.095z"/>
	<path fill="#FFFFFF" d="M176.15,67.024c14.06,0,25.419,10.335,25.419,24.581c0,14.339-11.359,24.767-25.419,24.767
		s-25.419-10.428-25.419-24.767C150.731,77.359,162.091,67.024,176.15,67.024z M176.15,108.551c8.846,0,16.201-7.076,16.201-16.945
		c0-9.776-7.355-16.76-16.201-16.76c-8.938,0-16.201,6.983-16.201,16.76C159.949,101.475,167.212,108.551,176.15,108.551z"/>
	<path fill="#FFFFFF" d="M212.932,75.125h-7.914v-6.983h8.1V55.199h8.846v12.942h11.267v6.983h-11.267v22.066
		c0,9.591,6.518,10.801,10.057,10.801c1.303,0,2.141-0.093,2.141-0.093v7.542c0,0-1.303,0.186-3.259,0.186
		c-5.959,0-17.97-1.862-17.97-17.598V75.125z"/>
	<path fill="#FFFFFF" d="M244.497,75.125h-7.914v-6.983h8.101V55.199h8.846v12.942h11.267v6.983h-11.267v22.066
		c0,9.591,6.518,10.801,10.056,10.801c1.303,0,2.142-0.093,2.142-0.093v7.542c0,0-1.304,0.186-3.259,0.186
		c-5.959,0-17.971-1.862-17.971-17.598V75.125z"/>
	<path fill="#FFFFFF" d="M273.548,105.479h9.684v9.776h-9.684V105.479z"/>
	<path fill="#FFFFFF" d="M296.268,56.503h-7.821V49.52H305.3v51.769c0,4.004,0.932,6.704,5.027,6.704
		c1.49,0,2.515-0.093,2.515-0.093l-0.093,7.448c0,0-1.863,0.187-4.004,0.187c-6.704,0-12.477-2.7-12.477-13.688V56.503z"/>
	<path fill="#FFFFFF" d="M325.599,127.266c4.004,0,7.077-2.793,8.659-6.518l1.955-4.655l-16.48-40.968h-5.959v-6.983h21.509v6.983
		h-6.238l10.521,28.025c0.651,2.049,0.838,4.097,0.838,4.097h0.279c0,0,0.372-2.048,1.117-4.097l10.429-28.025h-6.053v-6.983h20.856
		v6.983h-5.866l-18.621,47.579c-3.166,8.007-9.311,12.104-16.574,12.104c-6.051,0-10.148-2.979-10.148-2.979l3.072-6.797
		C318.895,125.031,321.596,127.266,325.599,127.266z"/>
</g>
<g>
	<g>
		<g>
			<path fill="#FFFFFF" d="M88.922,17.984l5.705-6.827c0,0,0,0-9.236-3.007c-13.416,7.727-39.263,33.771-39.28,36.583
				c0,0,2.314,4.834,2.295,7.156c-0.376-0.761,0.825,0.142-4.128-4.82c-24.724,24.4-29.583,52.96-31.214,56.391
				c0.477,2.021,13.466,19.683,18.66,23.64c4.958,0.356,28.577-11.902,28.577-11.902s7.601-14.262,10-20.924
				c-0.293,0.19-5.1,2.406-8.095,3.111c-3.176,0.744-1.715-0.814-1.715-0.814s5.875-3.516,9.881-7.198
				c4.007-3.685,11.21-24.877,11.21-24.877s-0.561-1.088-2.021,0.476c-1.46,1.562-6.878,3.14-6.878,3.14s7.098-3.497,13.16-10.102
				c6.062-6.605,10.988-40.058,10.988-40.058L88.922,17.984z M41.878,54.68l5.898,7.104l0.833,3.536l-2.841-1.389
				c-2.564-1.832-7.069-4.737-7.069-4.737L41.878,54.68z M37.069,61.922l7.934,6.073l1.143,3.844l-3.62-0.33
				c-1.173-1.097-8.494-4.609-8.494-4.609L37.069,61.922z M35.987,120.611c-2.971,1.611-2.971,1.611-2.971,1.611l-0.683-2.886
				c0,0,23.316-74.459,51.795-99.74l2.022,5.132C86.152,24.729,50.796,69.603,35.987,120.611z"/>
		</g>
	</g>
	<polygon fill="#FFFFFF" points="21.499,149.064 30.518,124.624 34.54,125.661 22.713,157 	"/>
</g>
</svg>
