<?xml version="1.0" encoding="utf-8"?>
<!-- Generator: Adobe Illustrator 16.0.0, SVG Export Plug-In . SVG Version: 6.00 Build 0)  -->
<!DOCTYPE svg PUBLIC "-//W3C//DTD SVG 1.1//EN" "http://www.w3.org/Graphics/SVG/1.1/DTD/svg11.dtd">
<svg version="1.1" id="Layer_1" xmlns="http://www.w3.org/2000/svg" xmlns:xlink="http://www.w3.org/1999/xlink" x="0px" y="0px"
	 width="600px" height="550px" viewBox="0 0 600 550" enable-background="new 0 0 600 550" xml:space="preserve">
<path fill="#FFFFFF" d="M208.776,329.978c-0.105,0.504-0.259,1.003-0.296,1.524l-6.27,93.902c-0.541,8.121,9.53,14.34,16.548,10.217
	l81.146-47.668c0.448-0.267,0.821-0.618,1.231-0.947c0.128-0.102,0.288-0.132,0.416-0.234c0.064-0.063,0.087-0.141,0.151-0.203
	c0.758-0.684,1.448-1.445,1.991-2.325l129.675-210.01c3.195-5.175,1.595-11.942-3.581-15.138l-74.876-46.234
	c-5.177-3.196-11.942-1.595-15.139,3.581L210.1,326.451c-0.544,0.879-0.91,1.83-1.188,2.821c-0.027,0.087-0.087,0.142-0.114,0.227
	C208.755,329.654,208.81,329.817,208.776,329.978z M292.83,359.965l-20.424-23.496c-0.744-0.848-1.583-1.56-2.529-2.144
	c-0.946-0.584-1.959-1.016-3.049-1.301l-30.156-7.735l90.104-145.924l56.157,34.675L292.83,359.965z M225.551,406.112l4.001-59.933
	l28.489,7.314l19.301,22.194L225.551,406.112z M408.87,172.034l-14.378,23.287l-56.157-34.676l14.372-23.276l56.157,34.675
	L408.87,172.034z"/>
</svg>
