<?xml version="1.0" encoding="utf-8"?>
<!-- Generator: Adobe Illustrator 16.0.0, SVG Export Plug-In . SVG Version: 6.00 Build 0)  -->
<!DOCTYPE svg PUBLIC "-//W3C//DTD SVG 1.1//EN" "http://www.w3.org/Graphics/SVG/1.1/DTD/svg11.dtd">
<svg version="1.1" id="Layer_1" xmlns="http://www.w3.org/2000/svg" xmlns:xlink="http://www.w3.org/1999/xlink" x="0px" y="0px"
	 width="600px" height="550px" viewBox="0 0 600 550" enable-background="new 0 0 600 550" xml:space="preserve">
<path fill="#FFFFFF" d="M445.673,310.761c-0.065-0.121-0.176-0.198-0.242-0.308c-0.297-0.539-0.726-0.957-1.11-1.43
	c-0.484-0.605-0.946-1.222-1.54-1.694c-0.43-0.353-0.924-0.572-1.408-0.858c-0.737-0.429-1.463-0.824-2.277-1.066
	c-0.209-0.066-0.362-0.221-0.571-0.275c-0.386-0.099-0.748,0-1.122-0.055c-0.748-0.11-1.475-0.165-2.233-0.11
	c-0.77,0.044-1.474,0.187-2.2,0.386c-0.297,0.088-0.604,0.043-0.901,0.164l-62.117,23.188c-5.698,2.123-8.58,8.459-6.457,14.146
	c2.123,5.698,8.47,8.569,14.156,6.457l40.568-15.136c-20.284,47.278-66.187,78.749-118.107,78.749
	c-58.718,0-110.066-40.546-124.85-98.604c-1.507-5.886-7.502-9.482-13.376-7.942c-5.896,1.496-9.449,7.491-7.953,13.376
	c17.27,67.804,77.374,115.17,146.168,115.17c60.467,0,113.949-36.366,137.863-91.069l19.723,38.324
	c1.947,3.795,5.798,5.962,9.79,5.962c1.694,0,3.422-0.385,5.027-1.221c5.401-2.772,7.535-9.405,4.752-14.817L445.673,310.761z"/>
<path fill="#FFFFFF" d="M300.088,148.896c56.805,0,106.304,37.246,123.189,92.686c1.771,5.819,7.92,9.064,13.728,7.326
	c5.809-1.771,9.086-7.92,7.315-13.728c-19.724-64.768-77.693-108.284-144.232-108.284c-57.959,0-109.329,32.978-134.684,84.238
	l-18.007-37.818c-2.618-5.5-9.196-7.821-14.663-5.203c-5.489,2.607-7.81,9.174-5.203,14.652l28.842,60.544
	c0.044,0.099,0.121,0.165,0.165,0.253c0.132,0.253,0.319,0.462,0.473,0.715c0.539,0.869,1.155,1.65,1.892,2.321
	c0.275,0.253,0.539,0.473,0.836,0.704c0.957,0.715,1.991,1.309,3.124,1.683c0.088,0.033,0.154,0.11,0.253,0.132
	c0.022,0.011,0.055,0,0.077,0.011c1.001,0.297,2.046,0.462,3.113,0.462l0,0l0,0c0.011,0,0.022,0,0.033,0
	c0.957,0,1.936-0.132,2.893-0.396l62.678-17.292c5.852-1.606,9.295-7.667,7.678-13.519c-1.606-5.852-7.678-9.317-13.53-7.678
	l-41.58,11.473C205.95,177.628,250.181,148.896,300.088,148.896z"/>
</svg>
